# Blender 5.1.1
# www.blender.org
mtllib test.mtl
o Whale_Bake
v -1.609883 0.241449 -7.492537
v -1.423170 0.158566 -7.904053
v -1.716189 0.213507 -7.631547
v -1.588194 0.161700 -7.763063
v -1.417562 0.179775 -8.057989
v -1.569407 0.132399 -7.995990
v -1.847852 0.184699 -7.776481
v -1.735790 0.131200 -7.891195
v -1.703867 0.268772 -7.589066
v -1.815639 0.251130 -7.753776
v -1.633231 0.326483 -7.730036
v -1.536491 0.341285 -7.975570
v -1.501226 0.318713 -8.058518
v -1.456686 0.266122 -8.118329
v -1.467916 0.208625 -8.134840
v -1.584374 0.149229 -8.129218
v -1.728185 0.108334 -8.083442
v -1.871239 0.107714 -8.015998
v -1.966573 0.154765 -7.929619
v -1.848204 0.189042 -8.242773
v -1.692083 0.285823 -8.119974
v -1.647620 0.238312 -8.184482
v -1.650689 0.169349 -8.199349
v -1.765673 0.132820 -8.207815
v -1.880220 0.103983 -8.182018
v -2.002246 0.097368 -8.152056
v -1.969712 0.202247 -7.918494
v -1.731967 0.299825 -8.032486
v -1.889232 0.230367 -8.189437
v -1.931088 0.241557 -8.105858
v -2.084231 0.128791 -8.100624
v -2.096022 0.161728 -8.092549
v -2.078520 0.186674 -8.216246
v -2.044016 0.170433 -8.291187
v -2.015714 0.146323 -8.315460
v -1.812446 0.154507 -8.245435
v -1.964608 0.132118 -8.295954
v -1.997794 0.109594 -8.279465
v -2.089476 0.102617 -8.290421
v -2.150529 0.113640 -8.252314
v -2.159414 0.134759 -8.237204
v -2.107328 0.139086 -8.329206
v -2.099641 0.125924 -8.339370
v -2.091941 0.117140 -8.333792
v -2.143969 0.112058 -8.318036
v -2.148650 0.121543 -8.317165
v -1.584400 0.342512 -7.861340
v -1.957284 0.229908 -8.007080
v -1.772615 0.291247 -7.913160
v -2.096819 0.178309 -8.136986
v -2.140397 0.144074 -8.294513
v -2.151497 0.150133 -8.234069
v -1.589014 0.260727 -7.517335
v -1.564920 0.250780 -7.515466
v -1.531444 0.228225 -7.571887
v -1.368696 0.185230 -7.839309
v -1.340997 0.191243 -7.922605
v -1.466840 0.193221 -7.701051
v -1.336097 0.207812 -7.983000
v -1.343130 0.228356 -8.024828
v -1.607822 0.278260 -7.556756
v -1.589500 0.314246 -7.663235
v -1.470822 0.337617 -7.928837
v -1.426696 0.317384 -7.994402
v -1.555953 0.330804 -7.735607
v -1.609488 0.295763 -7.604162
v -1.373949 0.277145 -8.036967
v -1.358568 0.245179 -8.047648
v -1.513950 0.340286 -7.837074
v -1.591496 0.247913 -7.472152
v -1.377895 0.167668 -7.865807
v -1.357814 0.171946 -7.938415
v -1.663573 0.184437 -7.687573
v -1.512343 0.176159 -7.708041
v -1.647964 0.228932 -7.554243
v -1.504892 0.153793 -7.839907
v -1.353664 0.190854 -8.024258
v -1.360871 0.208543 -8.064965
v -1.804586 0.154291 -7.828620
v -1.655113 0.124030 -7.948713
v -1.487711 0.147630 -7.949638
v -1.664326 0.146416 -7.827820
v -1.784985 0.198916 -7.705288
v -1.486369 0.152869 -8.031649
v -1.656257 0.275207 -7.540553
v -1.754294 0.260631 -7.658975
v -1.853482 0.214528 -7.749662
v -1.725740 0.241956 -7.599903
v -1.625001 0.320938 -7.669892
v -1.557579 0.344507 -7.921700
v -1.519697 0.333555 -8.020241
v -1.488596 0.347474 -7.957888
v -1.587788 0.338737 -7.732012
v -1.451035 0.237198 -8.130804
v -1.390723 0.274038 -8.088998
v -1.477204 0.294847 -8.092798
v -1.801425 0.101673 -8.053163
v -1.656747 0.124653 -8.110443
v -1.494794 0.166217 -8.092285
v -1.650474 0.118286 -8.039970
v -1.804027 0.118044 -7.953414
v -1.513440 0.179460 -8.135419
v -1.907155 0.169758 -7.850543
v -1.929767 0.127792 -7.970149
v -1.709486 0.296483 -7.731206
v -2.027922 0.140797 -8.014100
v -1.910878 0.239839 -8.149905
v -1.589011 0.305356 -8.087043
v -1.749220 0.215017 -8.212820
v -1.547152 0.254871 -8.150510
v -1.668776 0.266772 -8.157559
v -1.941792 0.095980 -8.168981
v -1.824027 0.117572 -8.197446
v -1.700660 0.147881 -8.205928
v -1.558831 0.187264 -8.167259
v -1.674314 0.137936 -8.167428
v -1.804754 0.103966 -8.129503
v -1.938579 0.100670 -8.081088
v -1.636355 0.202425 -8.195250
v -1.901982 0.223420 -7.838885
v -1.975457 0.180608 -7.910131
v -1.793699 0.260245 -8.151135
v -1.868905 0.211965 -8.222393
v -1.946692 0.237828 -8.058187
v -1.836207 0.271339 -8.065289
v -1.713017 0.296021 -8.078798
v -1.624296 0.324071 -8.000823
v -1.750830 0.299077 -7.977771
v -2.052134 0.110094 -8.125648
v -2.036770 0.181127 -8.005197
v -2.095327 0.147063 -8.089203
v -2.014037 0.213042 -8.159738
v -1.975628 0.198850 -8.241690
v -2.061422 0.181270 -8.257857
v -2.090753 0.184555 -8.174152
v -1.940513 0.165261 -8.280793
v -2.029919 0.157625 -8.309844
v -1.741983 0.158381 -8.225704
v -1.826629 0.167584 -8.247149
v -1.873778 0.144145 -8.265753
v -1.996407 0.138854 -8.311221
v -1.862338 0.131637 -8.251023
v -2.041785 0.105046 -8.291051
v -1.950861 0.106560 -8.239733
v -2.056086 0.098115 -8.228086
v -1.988006 0.118774 -8.291838
v -2.159277 0.124090 -8.240902
v -2.127020 0.119570 -8.183608
v -2.137774 0.146391 -8.171705
v -2.126977 0.105806 -8.273144
v -2.086923 0.149758 -8.319981
v -2.093510 0.121866 -8.338326
v -2.065902 0.133645 -8.334414
v -2.046480 0.123685 -8.325298
v -2.105124 0.131824 -8.336778
v -2.096179 0.109933 -8.322406
v -2.152547 0.111341 -8.297140
v -2.124941 0.112895 -8.329014
v -2.161310 0.126185 -8.285479
v -2.147151 0.115191 -8.319177
v -2.127129 0.121694 -8.334182
v -1.614354 0.334982 -7.797647
v -1.963793 0.218388 -7.955535
v -1.797955 0.274255 -7.838594
v -2.097170 0.171356 -8.109042
v -2.035234 0.201927 -8.070643
v -1.869755 0.260243 -7.954444
v -1.669360 0.320523 -7.882064
v -1.537746 0.350490 -7.849165
v -2.119316 0.163145 -8.262681
v -2.123576 0.140481 -8.318106
v -2.135346 0.160733 -8.195846
v -2.150379 0.147562 -8.263041
v -2.156909 0.143661 -8.236054
v -2.148055 0.130669 -8.310842
v -1.616726 0.254344 -7.481397
v -1.571533 0.227727 -7.526419
v -1.445690 0.324392 -8.035478
v -1.660205 0.291158 -7.586736
v -1.386885 0.229528 -8.101727
v -1.366253 0.261161 -8.015263
v -1.525354 0.329065 -7.785850
v -1.401991 0.294793 -7.991722
v -1.448667 0.323492 -7.943775
v -1.485927 0.332318 -7.873784
v -1.556226 0.317233 -7.701001
v -1.587516 0.299570 -7.650859
v -1.585778 0.287527 -7.598213
v -1.364232 0.239653 -8.011441
v -1.340311 0.226963 -7.979728
v -1.352886 0.205008 -7.935377
v -1.352286 0.197991 -7.875429
v -1.414596 0.195266 -7.772385
v -1.498397 0.216458 -7.647158
v -1.535118 0.243940 -7.565439
v -1.562161 0.258205 -7.539817
v -1.584176 0.267361 -7.564326
v -1.451880 0.267316 -7.785776
v -1.597698 0.254284 -7.472021
v -1.570295 0.239711 -7.498542
v -1.440787 0.167210 -7.793821
v -1.578968 0.139518 -7.894010
v -1.737990 0.168938 -7.759974
v -1.790478 0.228764 -7.674272
v -1.654870 0.255163 -7.527595
v -1.468487 0.339063 -7.998456
v -1.564779 0.345135 -7.790260
v -1.594369 0.330849 -7.689007
v -1.640238 0.288519 -7.556321
v -1.379806 0.250968 -8.097497
v -1.416636 0.300289 -8.064119
v -1.573135 0.137281 -8.070976
v -1.729125 0.110950 -8.001204
v -1.867397 0.140348 -7.898061
v -1.607431 0.317981 -8.046838
v -1.698160 0.307941 -7.810733
v -1.566540 0.284009 -8.123588
v -1.608100 0.160292 -8.170663
v -1.739620 0.118589 -8.151602
v -1.873023 0.096775 -8.107660
v -1.540771 0.220553 -8.162790
v -1.914821 0.197881 -7.827591
v -1.853625 0.268674 -8.013790
v -1.771059 0.241607 -8.187765
v -1.815917 0.269358 -8.110392
v -1.993150 0.117479 -8.045896
v -2.038257 0.163162 -7.999259
v -1.995237 0.209539 -8.203884
v -2.036536 0.193226 -8.031514
v -1.958446 0.182491 -8.268045
v -1.732824 0.184362 -8.221252
v -1.916381 0.151952 -8.279449
v -1.794715 0.142717 -8.238888
v -2.002668 0.098810 -8.236690
v -1.909976 0.118738 -8.248215
v -2.137093 0.133940 -8.172235
v -2.099412 0.106174 -8.206491
v -1.886091 0.244723 -7.889596
v -1.644060 0.325594 -7.945746
v -2.054118 0.129037 -8.331280
v -2.075950 0.140836 -8.332014
v -2.049665 0.114478 -8.316785
v -2.130924 0.108641 -8.312022
v -2.160707 0.117636 -8.289447
v -2.124289 0.116847 -8.334601
v -2.027858 0.209442 -8.114451
v -1.510892 0.350400 -7.905565
v -2.103077 0.157782 -8.295938
v -2.130192 0.163749 -8.226478
v -2.137369 0.155084 -8.178935
v -2.129000 0.128963 -8.329705
v -2.158932 0.135740 -8.279631
v -1.675119 0.296375 -7.646667
v -1.409686 0.205875 -8.094041
v -1.333085 0.208888 -8.037649
v -1.392513 0.170642 -7.985906
v -1.343330 0.174851 -7.904220
v -1.579457 0.203068 -7.610167
vn -0.3025 -0.8365 0.4569
vn 0.1615 -0.9867 0.0186
vn -0.3019 -0.8401 0.4507
vn 0.0170 -0.9758 0.2179
vn 0.3232 -0.8754 -0.3593
vn 0.1745 -0.9847 0.0037
vn -0.3828 -0.7892 0.4802
vn -0.0125 -0.9729 0.2311
vn -0.6109 0.6528 0.4480
vn -0.5341 0.7997 0.2743
vn -0.3047 0.9478 0.0946
vn -0.1056 0.9829 -0.1507
vn 0.0505 0.8995 -0.4340
vn 0.2392 0.5873 -0.7732
vn 0.4117 -0.3646 -0.8352
vn 0.2857 -0.9000 -0.3291
vn 0.1339 -0.9885 -0.0696
vn -0.0657 -0.9780 0.1979
vn -0.4327 -0.7755 0.4598
vn 0.1535 0.5558 -0.8170
vn -0.0791 0.9147 -0.3962
vn 0.1478 0.5453 -0.8251
vn 0.3387 -0.3000 -0.8918
vn 0.2074 -0.8926 -0.4002
vn 0.1322 -0.9717 -0.1959
vn -0.0889 -0.9920 0.0893
vn -0.6728 0.6321 0.3846
vn -0.2093 0.9713 -0.1134
vn -0.1024 0.9068 -0.4090
vn -0.2721 0.9582 -0.0885
vn -0.4694 -0.8016 0.3704
vn -0.8309 0.3461 0.4357
vn -0.3123 0.9389 -0.1449
vn -0.0688 0.8810 -0.4682
vn 0.2433 0.4430 -0.8629
vn 0.2842 0.0183 -0.9586
vn 0.3346 -0.4889 -0.8056
vn 0.1898 -0.9259 -0.3267
vn -0.0267 -0.9908 -0.1328
vn -0.4719 -0.8712 0.1355
vn -0.9817 0.0881 0.1688
vn -0.2253 0.7718 -0.5945
vn -0.0531 0.1024 -0.9933
vn 0.1296 -0.7631 -0.6332
vn -0.3842 -0.8428 -0.3770
vn -0.7798 0.1924 -0.5957
vn -0.2062 0.9784 -0.0120
vn -0.4006 0.9100 0.1071
vn -0.3099 0.9491 0.0558
vn -0.5284 0.8392 0.1286
vn -0.4638 0.8237 -0.3261
vn -0.6674 0.7446 0.0109
vn 0.0344 0.9895 0.1401
vn 0.7081 0.5658 0.4224
vn 0.7136 -0.5717 0.4048
vn 0.8110 -0.2250 0.5400
vn 0.9582 0.2368 -0.1606
vn 0.7293 -0.3863 0.5647
vn 0.8689 -0.4561 0.1921
vn 0.5331 0.7862 -0.3124
vn 0.3650 0.6486 0.6680
vn 0.3388 0.6931 0.6363
vn 0.5212 0.8378 0.1625
vn 0.5910 0.8051 0.0508
vn 0.4398 0.8568 0.2693
vn 0.1039 0.9824 0.1554
vn 0.7745 0.6253 -0.0950
vn 0.9627 -0.1991 -0.1833
vn 0.4656 0.8502 0.2456
vn 0.3441 -0.2363 0.9087
vn 0.4335 -0.8704 0.2335
vn 0.6717 -0.6567 -0.3431
vn -0.0865 -0.9497 0.3009
vn 0.1823 -0.9278 0.3255
vn -0.3013 -0.8551 0.4220
vn 0.0965 -0.9871 0.1279
vn 0.5722 -0.8045 -0.1592
vn 0.6103 0.0066 -0.7921
vn -0.1360 -0.9372 0.3212
vn 0.0906 -0.9875 0.1293
vn 0.1705 -0.9853 0.0050
vn 0.0040 -0.9745 0.2245
vn -0.3445 -0.8127 0.4700
vn 0.2457 -0.9576 -0.1507
vn -0.2618 0.6517 0.7118
vn -0.5887 0.7317 0.3437
vn -0.7713 0.0068 0.6364
vn -0.7233 -0.1594 0.6719
vn -0.1289 0.8866 0.4442
vn -0.1542 0.9854 -0.0724
vn -0.0397 0.9606 -0.2750
vn 0.2039 0.9781 -0.0428
vn 0.0274 0.9865 0.1615
vn 0.3471 0.1863 -0.9191
vn 0.5708 0.6271 -0.5300
vn 0.1428 0.7948 -0.5899
vn 0.0446 -0.9967 0.0681
vn 0.2088 -0.9574 -0.1995
vn 0.3161 -0.8869 -0.3369
vn 0.1599 -0.9869 -0.0190
vn -0.0389 -0.9741 0.2228
vn 0.3760 -0.7386 -0.5596
vn -0.4109 -0.7788 0.4739
vn -0.1938 -0.9316 0.3075
vn -0.3847 0.9135 0.1322
vn -0.4542 -0.7798 0.4309
vn -0.1977 0.9528 -0.2305
vn -0.0219 0.9100 -0.4141
vn 0.1129 0.5392 -0.8346
vn 0.1937 0.5614 -0.8045
vn 0.0190 0.8016 -0.5975
vn 0.0414 -0.9977 -0.0541
vn 0.1757 -0.9354 -0.3067
vn 0.2962 -0.6905 -0.6599
vn 0.3776 -0.3432 -0.8600
vn 0.2374 -0.9075 -0.3466
vn 0.1191 -0.9838 -0.1343
vn -0.0852 -0.9845 0.1534
vn 0.2671 0.1688 -0.9488
vn -0.5932 0.7333 0.3323
vn -0.7873 -0.1189 0.6050
vn -0.1168 0.9093 -0.3994
vn 0.0176 0.7896 -0.6134
vn -0.3371 0.9412 0.0209
vn -0.2504 0.9633 -0.0963
vn -0.1540 0.9603 -0.2326
vn -0.1665 0.9764 -0.1372
vn -0.2569 0.9661 -0.0250
vn -0.2326 -0.9477 0.2186
vn -0.7481 0.5078 0.4272
vn -0.8022 -0.3041 0.5139
vn -0.2847 0.9532 -0.1018
vn -0.0664 0.9011 -0.4284
vn -0.1995 0.9334 -0.2981
vn -0.4165 0.9092 -0.0006
vn 0.2178 0.5471 -0.8082
vn 0.0929 0.7297 -0.6774
vn 0.2930 -0.1595 -0.9427
vn 0.2510 0.2529 -0.9344
vn 0.3215 -0.2549 -0.9120
vn 0.3463 0.0111 -0.9380
vn 0.2484 -0.7812 -0.5728
vn 0.1152 -0.9571 -0.2659
vn 0.1671 -0.9501 -0.2634
vn -0.0693 -0.9976 0.0051
vn 0.2607 -0.8207 -0.5085
vn -0.8807 -0.4272 0.2046
vn -0.4690 -0.8387 0.2766
vn -0.9125 0.1673 0.3733
vn -0.1779 -0.9840 0.0135
vn -0.1273 0.8351 -0.5351
vn 0.1204 -0.4160 -0.9013
vn 0.1758 0.2448 -0.9535
vn 0.2963 -0.5917 -0.7497
vn -0.1823 0.5347 -0.8251
vn 0.0366 -0.9351 -0.3524
vn -0.5016 -0.8564 -0.1223
vn -0.1398 -0.8489 -0.5097
vn -0.9697 0.1574 -0.1868
vn -0.7070 -0.3768 -0.5985
vn -0.4257 0.1227 -0.8965
vn -0.2630 0.9643 0.0326
vn -0.4919 0.8462 0.2047
vn -0.3759 0.9180 0.1265
vn -0.6893 0.6686 0.2791
vn -0.4544 0.8815 0.1283
vn -0.3551 0.9311 0.0833
vn -0.2702 0.9627 0.0149
vn 0.1007 0.9905 0.0931
vn -0.3614 0.9063 -0.2190
vn -0.3477 0.8056 -0.4797
vn -0.6234 0.7768 0.0888
vn -0.5992 0.7860 -0.1521
vn -0.8849 0.4587 0.0811
vn -0.6662 0.5779 -0.4715
vn -0.5401 0.3175 0.7794
vn 0.2934 -0.8713 0.3935
vn 0.3340 0.9014 -0.2754
vn -0.2398 0.9452 0.2216
vn 0.6973 -0.3492 -0.6259
vn 0.9078 0.3754 0.1868
vn 0.4861 0.8283 0.2787
vn 0.6902 0.7112 0.1334
vn 0.6080 0.7762 0.1666
vn 0.5406 0.8105 0.2255
vn 0.5473 0.6996 0.4594
vn 0.3141 0.8532 0.4165
vn 0.4472 0.8374 0.3142
vn 0.8138 0.5790 0.0512
vn 0.8170 0.5507 0.1710
vn 0.9811 0.1919 0.0242
vn 0.9248 0.2306 0.3025
vn 0.7959 -0.2313 0.5594
vn 0.7668 -0.3919 0.5083
vn 0.8672 0.2230 0.4452
vn 0.4523 0.8575 0.2452
vn 0.3524 0.8830 0.3101
vn 0.7125 0.6008 0.3624
vn -0.0187 0.4461 0.8948
vn 0.6781 -0.4123 0.6084
vn 0.2682 -0.9272 0.2614
vn 0.0961 -0.9871 0.1284
vn -0.1121 -0.9432 0.3129
vn -0.7641 -0.0464 0.6434
vn -0.5323 0.0404 0.8456
vn 0.2419 0.9609 -0.1350
vn 0.0511 0.9909 0.1242
vn 0.0892 0.9419 0.3237
vn 0.0077 0.9193 0.3934
vn 0.7190 0.3305 -0.6114
vn 0.3923 0.8443 -0.3651
vn 0.2371 -0.9578 -0.1625
vn 0.0690 -0.9915 0.1105
vn -0.1647 -0.9331 0.3197
vn -0.1064 0.9610 -0.2554
vn -0.3327 0.9403 0.0724
vn 0.0790 0.8002 -0.5946
vn 0.3370 -0.7480 -0.5718
vn 0.1776 -0.9514 -0.2516
vn 0.0328 -0.9994 0.0093
vn 0.3032 0.1613 -0.9392
vn -0.7808 -0.0340 0.6238
vn -0.3014 0.9535 0.0002
vn -0.0182 0.7925 -0.6096
vn -0.1924 0.9551 -0.2254
vn -0.2202 -0.9352 0.2774
vn -0.7901 -0.2060 0.5774
vn -0.1860 0.9491 -0.2543
vn -0.5743 0.7800 0.2483
vn 0.0791 0.7769 -0.6246
vn 0.2246 0.2050 -0.9526
vn 0.3120 0.1805 -0.9328
vn 0.2899 -0.5302 -0.7968
vn 0.0656 -0.9900 -0.1247
vn 0.2167 -0.8893 -0.4028
vn -0.8263 -0.3957 0.4008
vn -0.2165 -0.9671 0.1334
vn -0.4279 0.8883 0.1666
vn -0.2151 0.9750 -0.0559
vn 0.2914 -0.2035 -0.9347
vn 0.0217 0.6245 -0.7808
vn 0.1922 -0.8497 -0.4910
vn -0.1268 -0.9775 -0.1688
vn -0.9074 -0.3971 -0.1375
vn -0.2220 -0.4659 -0.8565
vn -0.3722 0.9278 0.0271
vn 0.1439 0.9887 0.0430
vn -0.2550 0.8974 -0.3600
vn -0.4619 0.8840 -0.0722
vn -0.8066 0.5366 0.2477
vn -0.4456 0.5532 -0.7039
vn -0.8269 0.5286 -0.1918
vn -0.3083 0.9277 0.2105
vn 0.4800 -0.6904 -0.5413
vn 0.9351 -0.0953 -0.3414
vn 0.3654 -0.9238 -0.1141
vn 0.7649 -0.6407 0.0667
vn 0.0654 -0.9496 0.3066
vt 0.729504 0.884048
vt 0.726878 0.886848
vt 0.784898 0.904169
vt 0.775226 0.905406
vt 0.714568 0.886195
vt 0.720373 0.890571
vt 0.709926 0.891666
vt 0.716365 0.895490
vt 0.705494 0.897030
vt 0.712703 0.899708
vt 0.702669 0.901049
vt 0.711012 0.903008
vt 0.700234 0.904097
vt 0.711350 0.904228
vt 0.710514 0.903146
vt 0.772193 0.896141
vt 0.835185 0.889314
vt 0.840940 0.891270
vt 0.851394 0.890061
vt 0.842708 0.892903
vt 0.848990 0.893588
vt 0.840047 0.897916
vt 0.844519 0.901475
vt 0.834620 0.905624
vt 0.838359 0.910255
vt 0.830718 0.912624
vt 0.836546 0.916444
vt 0.830592 0.917538
vt 0.835997 0.921951
vt 0.829537 0.921921
vt 0.836072 0.926075
vt 0.830690 0.925042
vt 0.836674 0.928901
vt 0.827453 0.925789
vt 0.822424 0.925938
vt 0.861196 0.887600
vt 0.863026 0.887810
vt 0.863799 0.887840
vt 0.865946 0.889031
vt 0.859820 0.889418
vt 0.861464 0.891183
vt 0.857006 0.902296
vt 0.851988 0.907560
vt 0.863106 0.905740
vt 0.858009 0.910533
vt 0.853107 0.914885
vt 0.848685 0.912265
vt 0.867332 0.909772
vt 0.862202 0.914003
vt 0.871215 0.913742
vt 0.866432 0.917561
vt 0.861436 0.921202
vt 0.856799 0.918035
vt 0.871804 0.897262
vt 0.875522 0.901771
vt 0.872011 0.905517
vt 0.867958 0.901059
vt 0.878854 0.906133
vt 0.875568 0.909741
vt 0.881449 0.901272
vt 0.880604 0.903424
vt 0.877269 0.898901
vt 0.878010 0.896595
vt 0.878854 0.906132
vt 0.875522 0.901771
vt 0.871804 0.897262
vt 0.873669 0.894401
vt 0.874639 0.892363
vt 0.868650 0.885700
vt 0.871553 0.888825
vt 0.869235 0.889656
vt 0.863537 0.886259
vt 0.874638 0.892363
vt 0.873669 0.894401
vt 0.868059 0.892625
vt 0.709685 0.877915
vt 0.707136 0.881152
vt 0.709485 0.879604
vt 0.706155 0.882498
vt 0.702888 0.885327
vt 0.703272 0.883788
vt 0.697799 0.890153
vt 0.695970 0.893576
vt 0.697105 0.891838
vt 0.694401 0.895489
vt 0.691320 0.898601
vt 0.692715 0.896448
vt 0.692715 0.896449
vt 0.693021 0.898515
vt 0.691320 0.898601
vt 0.690516 0.900393
vt 0.688026 0.905431
vt 0.685951 0.906730
vt 0.687302 0.905221
vt 0.686356 0.908160
vt 0.848109 0.933542
vt 0.846356 0.934446
vt 0.827453 0.925789
vt 0.854825 0.935672
vt 0.853300 0.936874
vt 0.852489 0.938170
vt 0.845340 0.935602
vt 0.822424 0.925939
vt 0.710152 0.866399
vt 0.712704 0.869436
vt 0.710467 0.873544
vt 0.710877 0.872056
vt 0.715773 0.872908
vt 0.712678 0.876366
vt 0.865902 0.924251
vt 0.861438 0.927539
vt 0.856516 0.924743
vt 0.869991 0.927203
vt 0.866031 0.930281
vt 0.861904 0.932893
vt 0.856776 0.930423
vt 0.852311 0.927920
vt 0.874769 0.917578
vt 0.870384 0.920981
vt 0.878034 0.921246
vt 0.874027 0.924240
vt 0.884702 0.915149
vt 0.881757 0.918056
vt 0.878796 0.913924
vt 0.881904 0.910584
vt 0.878034 0.921246
vt 0.874769 0.917578
vt 0.871215 0.913742
vt 0.875568 0.909741
vt 0.878854 0.906133
vt 0.709485 0.879604
vt 0.713050 0.883458
vt 0.709636 0.886358
vt 0.706155 0.882498
vt 0.717196 0.887939
vt 0.713859 0.890956
vt 0.710623 0.893920
vt 0.706313 0.889218
vt 0.702888 0.885327
vt 0.700297 0.895778
vt 0.697248 0.899772
vt 0.704543 0.900363
vt 0.701277 0.904573
vt 0.697192 0.910666
vt 0.693423 0.903124
vt 0.719662 0.877100
vt 0.716387 0.880347
vt 0.712678 0.876367
vt 0.723816 0.881700
vt 0.720516 0.884843
vt 0.866806 0.935173
vt 0.863133 0.936389
vt 0.857709 0.934531
vt 0.871309 0.937048
vt 0.868013 0.937914
vt 0.865340 0.938441
vt 0.860203 0.937172
vt 0.873775 0.930039
vt 0.870331 0.932874
vt 0.877140 0.932555
vt 0.874282 0.935080
vt 0.878034 0.921246
vt 0.881009 0.924718
vt 0.877372 0.927338
vt 0.883512 0.927956
vt 0.880257 0.930175
vt 0.873775 0.930039
vt 0.869991 0.927203
vt 0.858665 0.938267
vt 0.864165 0.939480
vt 0.863918 0.940897
vt 0.857967 0.939618
vt 0.884699 0.906118
vt 0.883691 0.908088
vt 0.880604 0.903424
vt 0.887665 0.911274
vt 0.886517 0.912981
vt 0.884702 0.915149
vt 0.881904 0.910584
vt 0.714083 0.907319
vt 0.709239 0.904270
vt 0.712111 0.901226
vt 0.716560 0.904774
vt 0.704543 0.900363
vt 0.707569 0.896939
vt 0.710623 0.893920
vt 0.714986 0.898327
vt 0.719104 0.902049
vt 0.727586 0.886281
vt 0.724372 0.889262
vt 0.730794 0.890579
vt 0.727741 0.893292
vt 0.724739 0.896114
vt 0.721174 0.892275
vt 0.721839 0.899098
vt 0.718020 0.895328
vt 0.719104 0.902049
vt 0.714986 0.898327
vt 0.713859 0.890955
vt 0.717196 0.887939
vt 0.889218 0.924047
vt 0.886633 0.925825
vt 0.884438 0.922066
vt 0.887214 0.919740
vt 0.889218 0.924047
vt 0.887214 0.919740
vt 0.889024 0.918070
vt 0.890989 0.922854
vt 0.884702 0.915149
vt 0.886517 0.912981
vt 0.887665 0.911274
vt 0.890263 0.916801
vt 0.892275 0.922013
vt 0.730275 0.901835
vt 0.727999 0.904333
vt 0.725186 0.902088
vt 0.727785 0.899277
vt 0.725995 0.906912
vt 0.722818 0.904917
vt 0.714083 0.907319
vt 0.718803 0.909580
vt 0.716960 0.911302
vt 0.711547 0.909781
vt 0.722945 0.910969
vt 0.721812 0.912215
vt 0.720807 0.913155
vt 0.715148 0.912796
vt 0.708965 0.912207
vt 0.733380 0.894430
vt 0.730542 0.896757
vt 0.735302 0.897910
vt 0.732740 0.899742
vt 0.730275 0.901835
vt 0.727785 0.899277
vt 0.873314 0.940008
vt 0.873905 0.940886
vt 0.869328 0.940332
vt 0.870015 0.939356
vt 0.874734 0.942286
vt 0.869607 0.941773
vt 0.864165 0.939480
vt 0.882954 0.942299
vt 0.879161 0.942501
vt 0.877931 0.941159
vt 0.881666 0.941067
vt 0.873905 0.940886
vt 0.875992 0.939983
vt 0.879968 0.939523
vt 0.875538 0.938388
vt 0.872470 0.939008
vt 0.870015 0.939355
vt 0.883512 0.927956
vt 0.885345 0.930932
vt 0.882475 0.932665
vt 0.880257 0.930175
vt 0.886427 0.933656
vt 0.883791 0.934911
vt 0.881678 0.935711
vt 0.879903 0.934520
vt 0.877838 0.936660
vt 0.881070 0.937432
vt 0.893504 0.926261
vt 0.892201 0.926861
vt 0.890989 0.922854
vt 0.893969 0.929767
vt 0.892685 0.930192
vt 0.891086 0.930938
vt 0.890503 0.927777
vt 0.889218 0.924047
vt 0.888140 0.929213
vt 0.886633 0.925825
vt 0.888950 0.932199
vt 0.886427 0.933656
vt 0.885345 0.930932
vt 0.708965 0.912207
vt 0.702974 0.911546
vt 0.706196 0.907722
vt 0.711547 0.909781
vt 0.701277 0.904573
vt 0.703232 0.892273
vt 0.699880 0.888409
vt 0.707569 0.896939
vt 0.704543 0.900363
vt 0.700297 0.895778
vt 0.697105 0.891838
vt 0.884238 0.939071
vt 0.885060 0.940467
vt 0.881667 0.941067
vt 0.887148 0.938037
vt 0.887901 0.939298
vt 0.888959 0.940164
vt 0.886212 0.941537
vt 0.733168 0.905203
vt 0.732146 0.903877
vt 0.734256 0.902380
vt 0.734791 0.904787
vt 0.730275 0.901835
vt 0.732740 0.899742
vt 0.735302 0.897910
vt 0.736495 0.901148
vt 0.736785 0.904221
vt 0.883791 0.934912
vt 0.884101 0.937122
vt 0.886427 0.933656
vt 0.886835 0.936101
vt 0.891086 0.930938
vt 0.891082 0.933549
vt 0.889195 0.934729
vt 0.888950 0.932199
vt 0.890811 0.935266
vt 0.889405 0.936572
vt 0.887148 0.938037
vt 0.886835 0.936101
vt 0.893969 0.929767
vt 0.893733 0.932897
vt 0.892512 0.933046
vt 0.892685 0.930192
vt 0.892801 0.935714
vt 0.891690 0.935481
vt 0.887901 0.939298
vt 0.890137 0.937582
vt 0.891183 0.938181
vt 0.887148 0.938037
vt 0.889405 0.936572
vt 0.719104 0.902049
vt 0.722818 0.904917
vt 0.720720 0.907449
vt 0.725995 0.906912
vt 0.724319 0.909183
vt 0.701116 0.887008
vt 0.699881 0.888409
vt 0.730695 0.908784
vt 0.728568 0.908107
vt 0.730270 0.905911
vt 0.732183 0.906836
vt 0.725995 0.906912
vt 0.728000 0.904333
vt 0.727978 0.911383
vt 0.726085 0.911453
vt 0.727131 0.910019
vt 0.729190 0.910408
vt 0.722945 0.910969
vt 0.724319 0.909184
vt 0.728848 0.912505
vt 0.725284 0.913081
vt 0.725569 0.912395
vt 0.728392 0.911923
vt 0.720807 0.913155
vt 0.721812 0.912215
vt 0.734093 0.907127
vt 0.732184 0.906836
vt 0.736785 0.904221
vt 0.736031 0.907128
vt 0.734342 0.909600
vt 0.732576 0.909238
vt 0.730695 0.908784
vt 0.730663 0.910863
vt 0.731889 0.911379
vt 0.732576 0.909238
vt 0.734342 0.909600
vt 0.691553 0.909442
vt 0.690573 0.904140
vt 0.852311 0.927920
vt 0.856776 0.930423
vt 0.849846 0.931824
vt 0.846927 0.929348
vt 0.861904 0.932893
vt 0.857708 0.934530
vt 0.854825 0.935672
vt 0.848109 0.933542
vt 0.843677 0.926973
vt 0.846792 0.925361
vt 0.853107 0.914885
vt 0.856799 0.918035
vt 0.849404 0.921466
vt 0.847353 0.917666
vt 0.861436 0.921202
vt 0.856516 0.924743
vt 0.844842 0.915026
vt 0.848685 0.912265
vt 0.861609 0.896289
vt 0.867958 0.901059
vt 0.863106 0.905740
vt 0.857005 0.902296
s 1
usemtl Whale_Bake
f 64/1/64 184/2/184 198/3/198 183/4/183
f 63/5/63 185/6/185 198/3/198 184/2/184
f 69/7/69 182/8/182 198/3/198 185/6/185
f 65/9/65 186/10/186 198/3/198 182/8/182
f 62/11/62 187/12/187 198/3/198 186/10/186
f 66/13/66 188/14/188 198/3/198 187/12/187
f 61/15/61 197/16/197 198/3/198 188/14/188
f 53/17/53 196/18/196 198/3/198 197/16/197
f 54/19/54 195/20/195 198/3/198 196/18/196
f 55/21/55 194/22/194 198/3/198 195/20/195
f 58/23/58 193/24/193 198/3/198 194/22/194
f 56/25/56 192/26/192 198/3/198 193/24/193
f 57/27/57 191/28/191 198/3/198 192/26/192
f 59/29/59 190/30/190 198/3/198 191/28/191
f 60/31/60 189/32/189 198/3/198 190/30/190
f 68/33/68 181/34/181 198/3/198 189/32/189
f 67/35/67 183/4/183 198/3/198 181/34/181
f 54/19/54 196/18/196 199/36/199 70/37/70
f 53/17/53 176/38/176 199/36/199 196/18/196
f 1/39/1 70/37/70 199/36/199 176/38/176
f 55/21/55 195/20/195 200/40/200 177/41/177
f 54/19/54 70/37/70 200/40/200 195/20/195
f 1/39/1 177/41/177 200/40/200 70/37/70
f 58/23/58 74/42/74 201/43/201 193/24/193
f 74/42/74 4/44/4 76/45/76 201/43/201
f 201/43/201 76/45/76 2/46/2 71/47/71
f 193/24/193 201/43/201 71/47/71 56/25/56
f 4/44/4 82/48/82 202/49/202 76/45/76
f 82/48/82 8/50/8 80/51/80 202/49/202
f 202/49/202 80/51/80 6/52/6 81/53/81
f 76/45/76 202/49/202 81/53/81 2/46/2
f 3/54/3 83/55/83 203/56/203 73/57/73
f 83/55/83 7/58/7 79/59/79 203/56/203
f 203/56/203 79/59/79 8/50/8 82/48/82
f 73/57/73 203/56/203 82/48/82 4/44/4
f 10/60/10 87/61/87 204/62/204 86/63/86
f 87/61/87 7/64/7 83/65/83 204/62/204
f 204/62/204 83/65/83 3/66/3 88/67/88
f 86/63/86 204/62/204 88/67/88 9/68/9
f 61/69/61 85/70/85 205/71/205 197/72/197
f 9/73/9 88/74/88 205/71/205 85/70/85
f 3/66/3 75/75/75 205/71/205 88/74/88
f 1/39/1 176/38/176 205/71/205 75/75/75
f 53/17/53 197/72/197 205/71/205 176/38/176
f 64/1/64 178/76/178 206/77/206 184/2/184
f 178/76/178 13/78/13 91/79/91 206/77/206
f 206/77/206 91/79/91 12/80/12 92/81/92
f 184/2/184 206/77/206 92/81/92 63/5/63
f 69/7/69 169/82/169 207/83/207 182/8/182
f 169/82/169 47/84/47 162/85/162 207/83/207
f 207/83/207 162/85/162 11/86/11 93/87/93
f 182/8/182 207/83/207 93/87/93 65/9/65
f 65/9/65 93/88/93 208/89/208 186/10/186
f 11/90/11 89/91/89 208/89/208 93/88/93
f 62/11/62 186/10/186 208/89/208 89/91/89
f 61/15/61 188/14/188 209/92/209 85/93/85
f 66/13/66 179/94/179 209/92/209 188/14/188
f 9/95/9 85/93/85 209/92/209 179/94/179
f 68/33/68 180/96/180 210/97/210 181/98/181
f 180/96/180 15/99/15 94/100/94 210/97/210
f 210/97/210 94/100/94 14/101/14 95/102/95
f 181/98/181 210/97/210 95/102/95 67/103/67
f 67/104/67 95/105/95 211/106/211 183/107/183
f 95/105/95 14/108/14 96/109/96 211/106/211
f 211/106/211 96/109/96 13/78/13 178/76/178
f 183/107/183 211/106/211 178/76/178 64/1/64
f 6/52/6 100/110/100 212/111/212 84/112/84
f 100/110/100 17/113/17 98/114/98 212/111/212
f 212/111/212 98/114/98 16/115/16 99/116/99
f 84/112/84 212/111/212 99/116/99 5/117/5
f 8/50/8 101/118/101 213/119/213 80/51/80
f 101/118/101 18/120/18 97/121/97 213/119/213
f 213/119/213 97/121/97 17/113/17 100/110/100
f 80/51/80 213/119/213 100/110/100 6/52/6
f 19/122/19 104/123/104 214/124/214 103/125/103
f 104/123/104 18/126/18 101/127/101 214/124/214
f 214/124/214 101/127/101 8/128/8 79/129/79
f 103/125/103 214/124/214 79/129/79 7/130/7
f 13/131/13 108/132/108 215/133/215 91/134/91
f 108/132/108 21/135/21 126/136/126 215/133/215
f 215/133/215 126/136/126 28/137/28 127/138/127
f 91/134/91 215/133/215 127/138/127 12/139/12
f 47/84/47 168/140/168 216/141/216 162/85/162
f 168/140/168 49/142/49 164/143/164 216/141/216
f 216/141/216 164/143/164 10/144/10 105/145/105
f 162/85/162 216/141/216 105/145/105 11/86/11
f 14/108/14 110/146/110 217/147/217 96/148/96
f 110/146/110 22/149/22 111/150/111 217/147/217
f 217/147/217 111/150/111 21/135/21 108/132/108
f 96/148/96 217/147/217 108/132/108 13/131/13
f 16/115/16 116/151/116 218/152/218 102/153/102
f 116/151/116 24/154/24 114/155/114 218/152/218
f 218/152/218 114/155/114 23/156/23 115/157/115
f 102/153/102 218/152/218 115/157/115 15/99/15
f 17/113/17 117/158/117 219/159/219 98/114/98
f 117/158/117 25/160/25 113/161/113 219/159/219
f 219/159/219 113/161/113 24/154/24 116/151/116
f 98/114/98 219/159/219 116/151/116 16/115/16
f 18/162/18 118/163/118 220/164/220 97/121/97
f 118/163/118 26/165/26 112/166/112 220/164/220
f 220/164/220 112/166/112 25/160/25 117/167/117
f 97/121/97 220/164/220 117/167/117 17/168/17
f 15/99/15 115/157/115 221/169/221 94/100/94
f 115/157/115 23/156/23 119/170/119 221/169/221
f 221/169/221 119/170/119 22/171/22 110/172/110
f 94/100/94 221/169/221 110/172/110 14/101/14
f 10/60/10 120/173/120 222/174/222 87/175/87
f 120/173/120 27/176/27 121/177/121 222/174/222
f 222/174/222 121/177/121 19/178/19 103/179/103
f 87/175/87 222/174/222 103/179/103 7/58/7
f 48/180/48 167/181/167 223/182/223 124/183/124
f 167/181/167 49/184/49 128/185/128 223/182/223
f 223/182/223 128/185/128 28/186/28 125/187/125
f 124/183/124 223/182/223 125/187/125 30/188/30
f 22/149/22 109/189/109 224/190/224 111/150/111
f 109/189/109 20/191/20 123/192/123 224/190/224
f 224/190/224 123/192/123 29/193/29 122/194/122
f 111/150/111 224/190/224 122/194/122 21/135/21
f 29/193/29 107/195/107 225/196/225 122/194/122
f 107/195/107 30/197/30 125/198/125 225/196/225
f 225/196/225 125/198/125 28/186/28 126/199/126
f 122/194/122 225/196/225 126/199/126 21/200/21
f 31/201/31 129/202/129 226/203/226 106/204/106
f 129/202/129 26/165/26 118/163/118 226/203/226
f 226/203/226 118/163/118 18/126/18 104/123/104
f 106/204/106 226/203/226 104/123/104 19/122/19
f 31/205/31 106/206/106 227/207/227 131/208/131
f 106/206/106 19/209/19 121/210/121 227/207/227
f 227/207/227 121/210/121 27/211/27 130/212/130
f 131/208/131 227/207/227 130/212/130 32/213/32
f 34/214/34 134/215/134 228/216/228 133/217/133
f 134/215/134 33/218/33 132/219/132 228/216/228
f 228/216/228 132/219/132 30/197/30 107/195/107
f 133/217/133 228/216/228 107/195/107 29/193/29
f 48/220/48 166/221/166 229/222/229 163/223/163
f 166/221/166 50/224/50 165/225/165 229/222/229
f 229/222/229 165/225/165 32/226/32 130/227/130
f 163/223/163 229/222/229 130/227/130 27/228/27
f 20/191/20 136/229/136 230/230/230 123/192/123
f 136/229/136 35/231/35 137/232/137 230/230/230
f 230/230/230 137/232/137 34/233/34 133/234/133
f 123/192/123 230/230/230 133/234/133 29/193/29
f 36/235/36 139/236/139 231/237/231 138/238/138
f 139/236/139 20/239/20 109/240/109 231/237/231
f 231/237/231 109/240/109 22/171/22 119/241/119
f 138/238/138 231/237/231 119/241/119 23/156/23
f 35/242/35 136/243/136 232/244/232 141/245/141
f 136/243/136 20/239/20 139/246/139 232/244/232
f 232/244/232 139/246/139 36/235/36 140/247/140
f 141/245/141 232/244/232 140/247/140 37/248/37
f 24/154/24 142/249/142 233/250/233 114/155/114
f 142/249/142 37/248/37 140/247/140 233/250/233
f 233/250/233 140/247/140 36/235/36 138/251/138
f 114/155/114 233/250/233 138/251/138 23/156/23
f 26/252/26 145/253/145 234/254/234 112/255/112
f 145/253/145 39/256/39 143/257/143 234/254/234
f 234/254/234 143/257/143 38/258/38 144/259/144
f 112/255/112 234/254/234 144/259/144 25/160/25
f 25/160/25 144/259/144 235/260/235 113/161/113
f 144/259/144 38/258/38 146/261/146 235/260/235
f 235/260/235 146/261/146 37/248/37 142/249/142
f 113/161/113 235/260/235 142/249/142 24/154/24
f 32/213/32 149/262/149 236/263/236 131/264/131
f 149/262/149 41/265/41 147/266/147 236/263/236
f 236/263/236 147/266/147 40/267/40 148/268/148
f 131/264/131 236/263/236 148/268/148 31/269/31
f 31/269/31 148/268/148 237/270/237 129/271/129
f 148/268/148 40/267/40 150/272/150 237/270/237
f 237/270/237 150/272/150 39/273/39 145/274/145
f 129/271/129 237/270/237 145/274/145 26/165/26
f 27/275/27 120/276/120 238/277/238 163/278/163
f 120/276/120 10/144/10 164/279/164 238/277/238
f 238/277/238 164/279/164 49/184/49 167/181/167
f 163/278/163 238/277/238 167/181/167 48/220/48
f 12/139/12 127/138/127 239/280/239 90/281/90
f 127/138/127 28/137/28 128/282/128 239/280/239
f 239/280/239 128/282/128 49/283/49 168/284/168
f 90/281/90 239/280/239 168/284/168 47/285/47
f 37/248/37 154/286/154 240/287/240 141/288/141
f 154/286/154 44/289/44 152/290/152 240/287/240
f 240/287/240 152/290/152 43/291/43 153/292/153
f 141/288/141 240/287/240 153/292/153 35/242/35
f 42/293/42 151/294/151 241/295/241 155/296/155
f 151/294/151 34/297/34 137/298/137 241/295/241
f 241/295/241 137/298/137 35/299/35 153/300/153
f 155/296/155 241/295/241 153/300/153 43/301/43
f 38/258/38 143/302/143 242/303/242 146/261/146
f 143/302/143 39/304/39 156/305/156 242/303/242
f 242/303/242 156/305/156 44/289/44 154/286/154
f 146/261/146 242/303/242 154/286/154 37/248/37
f 40/306/40 157/307/157 243/308/243 150/309/150
f 157/307/157 45/310/45 158/311/158 243/308/243
f 243/308/243 158/311/158 44/312/44 156/313/156
f 150/309/150 243/308/243 156/313/156 39/256/39
f 41/314/41 159/315/159 244/316/244 147/317/147
f 159/315/159 46/318/46 160/319/160 244/316/244
f 244/316/244 160/319/160 45/310/45 157/307/157
f 147/317/147 244/316/244 157/307/157 40/306/40
f 43/291/43 152/320/152 245/321/245 161/322/161
f 152/320/152 44/323/44 158/324/158 245/321/245
f 245/321/245 158/324/158 45/310/45 160/319/160
f 161/322/161 245/321/245 160/319/160 46/318/46
f 30/325/30 132/326/132 246/327/246 124/183/124
f 132/326/132 33/328/33 135/329/135 246/327/246
f 246/327/246 135/329/135 50/224/50 166/221/166
f 124/183/124 246/327/246 166/221/166 48/220/48
f 63/5/63 92/81/92 247/330/247 185/6/185
f 92/81/92 12/80/12 90/331/90 247/330/247
f 247/330/247 90/331/90 47/84/47 169/82/169
f 185/6/185 247/330/247 169/82/169 69/7/69
f 51/332/51 170/333/170 248/334/248 171/335/171
f 170/333/170 33/336/33 134/337/134 248/334/248
f 248/334/248 134/337/134 34/297/34 151/294/151
f 171/335/171 248/334/248 151/294/151 42/293/42
f 52/338/52 172/339/172 249/340/249 173/341/173
f 172/339/172 50/342/50 135/343/135 249/340/249
f 249/340/249 135/343/135 33/336/33 170/333/170
f 173/341/173 249/340/249 170/333/170 51/332/51
f 41/344/41 149/345/149 250/346/250 174/347/174
f 149/345/149 32/348/32 165/349/165 250/346/250
f 250/346/250 165/349/165 50/342/50 172/339/172
f 174/347/174 250/346/250 172/339/172 52/338/52
f 42/293/42 155/296/155 251/350/251 171/351/171
f 155/296/155 43/352/43 161/353/161 251/350/251
f 251/350/251 161/353/161 46/354/46 175/355/175
f 171/351/171 251/350/251 175/355/175 51/356/51
f 41/344/41 174/347/174 252/357/252 159/358/159
f 174/347/174 52/338/52 173/341/173 252/357/252
f 252/357/252 173/341/173 51/332/51 175/359/175
f 159/358/159 252/357/252 175/359/175 46/360/46
f 10/144/10 86/361/86 253/362/253 105/145/105
f 9/95/9 179/94/179 253/362/253 86/361/86
f 66/13/66 187/12/187 253/362/253 179/94/179
f 62/11/62 89/91/89 253/362/253 187/12/187
f 11/90/11 105/145/105 253/362/253 89/91/89
f 5/363/5 99/364/99 254/365/254 78/366/78
f 16/367/16 102/368/102 254/365/254 99/364/99
f 15/369/15 180/370/180 254/365/254 102/368/102
f 68/33/68 189/32/189 254/365/254 180/370/180
f 60/31/60 78/366/78 254/365/254 189/32/189
f 5/363/5 78/366/78 255/371/255 77/372/77
f 60/31/60 190/30/190 255/371/255 78/366/78
f 59/29/59 77/372/77 255/371/255 190/30/190
f 2/373/2 81/374/81 256/375/256 72/376/72
f 6/377/6 84/378/84 256/375/256 81/374/81
f 5/363/5 77/372/77 256/375/256 84/378/84
f 59/29/59 191/28/191 256/375/256 77/372/77
f 57/27/57 72/376/72 256/375/256 191/28/191
f 2/373/2 72/376/72 257/379/257 71/380/71
f 57/27/57 192/26/192 257/379/257 72/376/72
f 56/25/56 71/380/71 257/379/257 192/26/192
f 1/39/1 75/75/75 258/381/258 177/41/177
f 3/66/3 73/382/73 258/381/258 75/75/75
f 4/383/4 74/384/74 258/381/258 73/382/73
f 58/23/58 194/22/194 258/381/258 74/384/74
f 55/21/55 177/41/177 258/381/258 194/22/194
